<?xml version="1.0" standalone="no"?>
<!DOCTYPE svg PUBLIC "-//W3C//DTD SVG 20010904//EN"
 "http://www.w3.org/TR/2001/REC-SVG-20010904/DTD/svg10.dtd">
<svg version="1.0" xmlns="http://www.w3.org/2000/svg"
 width="1295.000000pt" height="1295.000000pt" viewBox="0 0 1295.000000 1295.000000"
 preserveAspectRatio="xMidYMid meet">
<metadata>
Created by potrace 1.16, written by Peter Selinger 2001-2019
</metadata>
<g transform="translate(0.000000,1295.000000) scale(0.100000,-0.100000)"
fill="#000000" stroke="none">
<path d="M4675 11295 c-136 -23 -335 -76 -540 -144 -172 -57 -448 -160 -454
-170 -4 -4 -37 -18 -76 -30 -38 -13 -94 -36 -125 -52 -30 -16 -58 -29 -62 -29
-4 0 -40 -15 -80 -34 -186 -86 -276 -126 -287 -126 -6 0 -11 -4 -11 -8 0 -5
-12 -14 -27 -21 -90 -41 -216 -149 -266 -228 -39 -62 -67 -154 -67 -222 0
-103 39 -164 158 -251 39 -28 180 -164 217 -210 143 -175 229 -346 280 -557
33 -134 51 -179 85 -203 34 -24 85 -26 107 -5 30 31 24 6 -11 -43 -70 -97 -92
-212 -60 -309 56 -168 179 -332 369 -492 49 -41 92 -78 95 -81 3 -3 37 -26 75
-51 211 -137 317 -187 408 -196 44 -4 71 -2 81 6 10 9 21 7 45 -6 17 -10 31
-21 31 -25 0 -5 7 -8 16 -8 9 0 31 -7 50 -16 54 -26 163 -15 240 24 98 50 201
182 229 295 12 47 22 39 29 -23 10 -88 -2 -153 -40 -217 -19 -30 -34 -58 -34
-62 0 -3 -34 -64 -75 -136 -41 -71 -75 -133 -75 -137 0 -4 -37 -83 -83 -175
-151 -303 -208 -520 -209 -793 0 -195 27 -368 87 -545 88 -262 196 -425 296
-449 25 -5 27 -3 33 37 4 23 2 147 -4 274 -18 377 11 673 90 912 55 169 79
230 106 277 13 22 21 44 17 47 -3 4 -2 7 4 7 6 0 27 24 46 53 51 76 143 157
178 157 13 0 20 -10 25 -35 8 -42 24 -56 24 -21 0 16 11 33 32 50 l32 25 15
-22 c9 -12 19 -44 22 -72 4 -34 7 -7 8 80 2 201 13 257 67 345 50 82 154 290
154 309 0 6 -9 29 -20 50 -17 34 -18 41 -5 51 8 7 15 20 15 30 0 10 9 39 21
65 19 42 22 45 37 32 15 -14 17 -13 18 9 2 20 -1 23 -12 13 -10 -8 -14 -8 -14
0 0 6 -5 11 -11 11 -5 0 -7 -4 -4 -10 3 -5 1 -10 -4 -10 -6 0 -11 8 -11 17 0
13 -3 14 -12 5 -6 -6 -11 -32 -11 -57 0 -25 -3 -41 -7 -35 -4 6 -15 -9 -25
-32 -10 -24 -28 -67 -41 -96 -13 -29 -24 -55 -24 -59 0 -12 -93 -200 -133
-268 l-41 -70 -8 54 c-15 97 -92 197 -180 232 -48 20 -123 24 -162 9 -14 -5
-26 -7 -26 -4 0 12 37 59 89 113 62 65 116 88 180 77 46 -7 113 -55 125 -88
10 -28 2 -43 -66 -130 -33 -43 -14 -44 34 -4 48 41 158 175 158 192 0 6 7 18
16 25 19 16 144 266 144 288 0 8 3 12 6 9 3 -3 1 -23 -4 -44 -23 -90 -23 -91
-2 -97 11 -3 23 0 27 5 3 6 1 8 -5 4 -6 -3 -13 -2 -17 4 -3 5 3 10 14 10 16 0
21 7 22 28 2 34 2 33 -7 57 -7 18 -5 18 19 -3 25 -24 25 -24 36 -4 15 29 14
52 -4 52 -8 0 -15 5 -15 11 0 5 -4 7 -10 4 -6 -4 -11 6 -11 22 -1 17 -3 21 -6
11 -5 -19 -23 -25 -23 -7 0 5 -4 8 -9 4 -5 -3 -13 0 -17 6 -4 7 -3 9 3 6 6 -4
14 0 17 9 3 8 2 12 -4 9 -14 -9 -12 17 3 37 8 10 26 16 44 16 25 -1 29 -4 25
-21 -3 -14 -1 -18 6 -13 7 4 12 15 13 24 0 14 2 14 8 -2 5 -13 10 -16 15 -8
13 21 36 245 36 352 0 126 -17 361 -30 410 -5 19 -19 79 -31 132 -12 54 -26
95 -30 92 -5 -3 -6 2 -3 10 3 9 1 29 -4 45 -15 43 6 31 43 -23 16 -24 34 -42
39 -39 5 4 6 2 3 -4 -4 -6 9 -41 28 -79 19 -37 37 -88 41 -112 5 -32 9 -40 16
-31 7 10 8 9 4 -5 -4 -10 2 -48 11 -85 15 -53 18 -102 16 -246 -1 -99 -7 -218
-13 -265 -6 -47 -12 -95 -13 -107 -1 -13 -5 -23 -9 -23 -5 0 -8 -11 -8 -24 0
-14 -7 -55 -15 -92 -9 -36 -14 -74 -12 -83 3 -9 6 -2 7 14 1 27 2 28 11 10 7
-15 7 -12 3 13 -6 33 -6 33 15 15 12 -9 21 -25 21 -35 0 -13 8 -18 28 -18 27
0 30 4 56 88 34 111 36 124 44 202 8 76 -2 190 -21 240 -17 47 -25 80 -18 75
5 -2 11 5 15 18 3 12 14 32 24 43 10 11 21 26 24 34 3 11 8 9 18 -9 9 -18 12
-78 11 -225 0 -177 -11 -299 -36 -435 -5 -22 -3 -31 4 -26 6 3 11 1 11 -4 0
-6 -4 -11 -10 -11 -5 0 -10 -5 -10 -11 0 -5 5 -7 10 -4 6 3 10 -2 10 -12 1
-16 30 -66 30 -51 0 3 12 64 26 135 15 70 27 136 27 145 1 9 5 14 9 12 4 -3 8
3 8 12 0 10 20 81 44 158 24 78 47 158 50 178 11 60 21 52 40 -32 11 -49 22
-77 29 -73 6 3 7 1 3 -5 -7 -12 21 -121 35 -136 5 -6 9 -20 9 -32 0 -12 9 -50
20 -85 12 -35 24 -83 27 -106 3 -25 10 -40 16 -36 6 4 7 1 3 -6 -5 -7 -5 -24
-1 -39 5 -20 8 -23 16 -11 7 12 9 11 9 -3 0 -9 -4 -19 -9 -22 -5 -3 -7 -14 -5
-24 2 -9 9 -44 15 -77 9 -48 13 -56 20 -40 8 17 9 16 6 -7 -2 -15 0 -25 4 -22
5 3 9 20 10 37 0 31 1 31 10 8 5 -14 8 -30 5 -36 -2 -6 2 -19 10 -30 8 -10 14
-28 14 -39 0 -10 2 -17 5 -14 3 3 -3 50 -14 104 -39 193 -68 396 -75 525 -1
25 -10 56 -20 70 -18 23 -18 21 -12 -96 l6 -120 -21 55 c-11 30 -28 79 -36
107 -9 29 -20 50 -24 47 -5 -3 -6 1 -3 9 3 8 -4 44 -16 80 -17 53 -21 82 -17
149 7 116 16 171 27 178 14 9 24 75 15 97 -4 10 -9 25 -10 33 -1 8 -12 44 -25
79 -21 56 -25 61 -32 40 -5 -12 -6 -30 -3 -38 5 -14 7 -14 16 -1 8 11 9 7 5
-15 -2 -17 0 -37 6 -45 7 -12 9 -10 5 8 -3 13 -1 20 5 16 5 -4 7 -21 4 -39 -4
-21 -2 -35 5 -37 9 -3 9 -13 1 -38 -24 -77 -32 -119 -26 -134 3 -9 2 -16 -4
-16 -5 0 -12 -13 -15 -30 -4 -16 -10 -30 -15 -30 -5 0 -21 51 -37 113 -30 120
-55 170 -55 107 0 -28 3 -32 11 -20 8 11 9 8 4 -13 -4 -22 -3 -27 7 -21 11 6
10 5 0 -8 -11 -13 -10 -23 3 -55 32 -74 29 -240 -4 -318 -26 -60 -73 -214 -74
-242 -1 -18 -3 -30 -6 -28 -3 3 -6 114 -7 248 -3 280 -4 289 -21 283 -16 -6
-17 6 -3 20 16 16 -43 294 -62 294 -6 0 -8 9 -5 20 6 21 -6 65 -48 175 -14 39
-28 76 -30 83 -3 7 -9 11 -14 7 -9 -5 4 -58 28 -110 15 -31 50 -152 63 -216
13 -61 3 -89 -30 -89 -8 0 -24 -8 -34 -17 -24 -21 -32 -12 -53 62 -9 33 -24
73 -32 89 l-16 30 53 48 c43 38 49 48 32 48 -11 0 -27 -7 -36 -15 -8 -8 -19
-15 -24 -15 -6 0 -12 -7 -16 -15 -7 -18 -36 -20 -36 -2 -1 21 -60 108 -71 102
-5 -4 -9 -3 -8 2 1 4 -1 16 -5 25 -6 13 1 28 20 52 45 53 96 127 92 131 -2 2
-30 -20 -62 -49 -42 -38 -57 -57 -51 -67 5 -8 5 -11 0 -7 -4 4 -14 3 -20 -2
-8 -7 -29 6 -70 44 -57 53 -58 54 -43 78 9 13 24 52 33 86 10 35 22 65 26 68
5 3 9 13 9 24 0 10 8 21 18 25 15 6 14 8 -8 20 -32 18 -46 19 -31 2 8 -11 -1
-37 -40 -113 -28 -54 -54 -103 -58 -107 -5 -5 -30 3 -57 16 -53 27 -155 60
-162 52 -3 -2 8 -9 24 -16 131 -51 242 -121 288 -181 57 -76 59 -202 5 -310
-30 -61 -118 -187 -130 -188 -3 0 -6 16 -7 36 -1 20 -4 46 -8 56 -3 12 2 35
12 54 17 32 17 34 -1 54 -17 18 -17 25 -6 55 11 30 10 39 -6 65 -9 16 -25 32
-34 35 -13 5 -16 14 -12 43 6 44 -23 82 -62 82 -19 0 -25 5 -25 20 0 12 -7 35
-16 52 -14 28 -19 30 -54 24 -33 -5 -43 -2 -64 19 -30 30 -59 32 -85 6 -13
-13 -23 -16 -35 -9 -37 21 -66 -6 -81 -75 -4 -22 -10 -27 -25 -22 -14 4 -23
-1 -34 -23 -23 -44 -7 -224 24 -272 17 -28 20 -30 15 -10 l-7 25 17 -24 c14
-19 15 -25 4 -31 -11 -7 -10 -12 3 -27 8 -10 19 -28 22 -40 4 -13 11 -23 16
-23 5 0 16 -23 25 -51 9 -28 19 -48 22 -46 4 4 -36 146 -72 257 -22 65 -20
177 4 220 45 87 154 108 246 48 68 -45 131 -166 147 -283 19 -139 -16 -297
-83 -382 -17 -21 -35 -48 -40 -61 -5 -12 -12 -21 -17 -20 -26 8 -157 -123
-225 -225 -83 -125 -76 -122 -77 -37 0 106 -15 190 -55 306 -35 104 -56 151
-143 334 -66 141 -86 220 -85 345 1 99 3 108 66 320 6 22 17 46 24 53 7 7 13
17 13 22 0 5 12 35 27 67 15 32 39 94 54 138 l27 80 -4 -75 c-4 -99 -24 -185
-68 -299 -66 -171 -83 -359 -47 -504 28 -109 72 -186 176 -312 90 -108 141
-220 130 -289 l-6 -41 19 30 c11 17 36 47 56 67 37 38 47 62 21 52 -8 -4 -15
-1 -15 6 0 7 -7 10 -15 6 -8 -3 -15 -1 -15 5 0 6 -9 8 -20 4 -14 -5 -20 -2
-20 9 0 9 -3 15 -7 15 -19 -3 -27 2 -16 9 14 9 -35 97 -118 213 -102 143 -136
228 -145 354 -9 134 32 335 69 335 8 0 32 -13 53 -28 62 -45 68 -47 56 -26 -6
11 -22 34 -36 53 -14 19 -26 43 -26 52 0 15 111 109 129 109 28 0 75 -67 103
-150 3 -8 3 23 1 70 -2 47 0 91 6 99 6 9 36 16 88 19 101 6 107 -1 110 -112 1
-45 3 -83 3 -86 1 -3 15 32 31 77 20 54 37 84 49 88 11 3 43 -1 71 -9 66 -20
67 -20 38 3 -53 40 -127 56 -264 56 -118 -1 -137 -4 -205 -29 -41 -16 -99 -44
-127 -62 -29 -19 -53 -30 -53 -26 0 4 7 27 16 52 10 28 18 95 21 175 4 107 2
135 -11 160 l-16 30 0 -29 c0 -16 -3 -27 -6 -23 -13 12 -31 -19 -41 -73 -6
-30 -37 -108 -68 -173 -31 -66 -54 -121 -51 -125 3 -3 -3 -11 -13 -18 -24 -17
-111 -148 -111 -167 0 -18 24 -39 33 -30 4 3 7 14 7 23 0 10 7 23 15 30 12 10
13 7 4 -22 -6 -18 -11 -75 -11 -125 -1 -85 -9 -112 -21 -80 -3 6 -6 -9 -6 -34
-1 -73 43 -207 124 -379 41 -87 75 -164 75 -171 0 -7 -19 5 -42 27 -24 22 -83
74 -133 115 -110 91 -136 119 -170 187 -24 47 -27 65 -27 140 1 48 2 96 4 107
2 15 -2 19 -16 17 -25 -5 -49 6 -41 18 5 8 11 7 21 -1 10 -8 14 -8 14 -1 0 6
6 9 14 6 17 -6 27 18 15 37 -9 14 -19 7 -33 -26 -3 -6 -9 -3 -15 5 -10 13 -12
13 -21 0 -5 -8 -10 -21 -10 -28 0 -8 -5 -10 -12 -6 -8 5 -9 2 -5 -10 5 -12 -1
-24 -15 -37 l-23 -20 23 6 c15 4 31 -1 50 -16 18 -15 21 -19 7 -14 -24 10 -75
9 -87 -3 -4 -4 -30 -63 -57 -131 l-49 -124 2 176 c2 200 -3 187 91 238 74 39
97 59 91 76 -3 7 -1 15 4 18 4 3 11 -1 13 -7 4 -10 6 -10 6 0 2 23 -30 25 -62
3 -30 -21 -29 -20 5 13 21 20 44 48 52 63 8 16 23 38 34 49 23 24 76 124 69
130 -2 3 -54 -44 -115 -103 -86 -84 -106 -99 -89 -70 42 75 240 267 275 267 7
0 6 -18 -5 -52 -14 -48 -27 -75 -85 -181 -11 -20 -14 -35 -8 -42 6 -7 7 -15 3
-18 -3 -4 -1 -7 6 -7 9 0 11 8 7 25 -6 22 -3 25 18 25 13 0 26 -5 28 -12 9
-27 159 208 202 317 30 76 49 224 28 211 -8 -5 -12 1 -12 14 0 12 4 19 9 16
27 -17 17 138 -14 229 -4 11 2 5 14 -12 11 -18 23 -44 27 -58 3 -14 10 -25 14
-25 5 0 11 -18 15 -39 4 -22 17 -51 30 -65 l24 -26 3 23 c6 35 -44 165 -94
242 -110 171 -274 293 -448 334 -149 35 -391 32 -626 -8 -204 -35 -193 -33
-164 -20 95 42 525 185 584 194 27 4 63 1 99 -10 54 -16 62 -16 132 1 41 10
75 21 75 25 0 4 -23 12 -51 19 -27 7 -48 14 -45 17 10 10 86 23 194 33 138 12
267 -4 430 -54 186 -57 392 -96 514 -96 75 0 48 -16 -39 -24 -43 -4 -112 -14
-153 -22 -41 -8 -86 -14 -100 -14 -13 0 -79 25 -147 56 l-123 56 -63 -11 c-81
-14 -117 -14 -144 2 -125 69 -120 67 -181 56 -89 -17 -89 -16 -36 -55 l49 -36
97 6 c94 5 97 4 135 -23 21 -15 47 -38 58 -50 19 -22 26 -22 152 -20 130 3
167 -2 122 -16 -13 -4 -28 -13 -35 -20 -6 -6 -25 -22 -40 -36 -16 -13 -39 -43
-51 -65 -60 -110 -48 -210 37 -295 26 -26 60 -51 74 -55 31 -7 32 -16 6 -72
l-19 -43 28 -39 28 -39 32 33 c31 32 32 35 21 76 -6 23 -9 44 -7 47 4 3 83
-15 95 -22 1 -1 -7 -25 -19 -53 l-21 -51 21 -29 c12 -17 21 -35 21 -41 0 -18
8 -13 40 22 35 38 36 42 10 102 l-20 47 37 -5 c57 -8 97 -19 103 -28 4 -5 19
-10 35 -13 17 -2 25 -2 19 1 -15 5 -27 65 -18 88 5 12 4 16 -3 12 -14 -9 -22
-56 -11 -59 6 -2 -10 -4 -33 -5 -34 -1 -40 1 -24 8 16 8 15 8 -7 4 -17 -3 -28
-1 -28 5 0 6 -16 18 -36 26 -26 11 -33 18 -26 27 6 7 20 37 32 67 31 80 33 81
88 61 l47 -17 -4 -49 c-3 -43 -1 -48 12 -36 9 7 19 26 22 42 5 20 12 29 20 25
13 -5 61 -14 100 -20 23 -3 44 14 38 30 -3 7 5 10 20 7 26 -5 61 22 51 38 -4
6 -37 8 -86 4 l-81 -6 47 46 c44 44 58 75 36 75 -20 0 -95 -43 -117 -66 -12
-13 -26 -24 -30 -24 -16 0 -93 93 -93 112 0 19 5 20 155 16 152 -4 156 -5 183
-31 28 -27 52 -35 52 -18 0 5 -7 14 -15 21 -23 19 -18 30 13 30 42 0 72 11 72
26 0 8 7 14 15 14 8 0 15 -4 15 -10 0 -5 7 -10 15 -10 8 0 15 5 15 10 0 20
-32 22 -82 6 -65 -21 -93 -20 -53 1 56 29 150 111 141 121 -6 6 -103 -41 -134
-65 -18 -14 -36 -22 -39 -19 -13 13 63 77 134 112 104 52 97 65 -23 44 -32 -6
-69 -13 -81 -15 -15 -4 -23 -1 -23 8 0 10 29 20 95 32 52 10 95 20 95 22 0 2
-100 3 -222 3 -291 -1 -484 26 -730 100 -167 51 -321 80 -416 79 -42 -1 -135
-11 -207 -24z m1381 -277 c-30 -42 -56 -97 -56 -118 0 -24 -11 -25 -87 -5 -31
8 -100 15 -153 15 -94 1 -95 1 -60 16 53 23 226 78 325 102 22 5 42 10 44 11
2 1 -4 -9 -13 -21z m-456 -18 c19 -16 38 -30 43 -30 18 0 4 -21 -24 -36 -29
-14 -39 -14 -128 2 -125 23 -133 27 -90 50 44 23 107 42 139 43 14 1 40 -12
60 -29z m-1070 -5 c97 -28 170 -57 164 -66 -3 -5 3 -9 14 -9 22 0 81 -55 93
-89 12 -29 -9 -64 -49 -85 -69 -35 -174 -47 -512 -56 -392 -11 -514 -26 -813
-100 -359 -89 -540 -189 -616 -339 -18 -35 -22 -56 -19 -112 2 -55 1 -66 -9
-53 -27 37 -25 88 7 185 31 92 62 152 103 197 11 12 16 22 10 22 -6 0 -43 -31
-82 -70 -39 -38 -71 -67 -71 -64 0 2 11 27 25 55 29 57 107 140 180 193 48 34
246 135 296 151 13 4 49 20 80 35 79 38 315 115 429 139 240 52 292 62 385 76
120 17 306 12 385 -10z m928 -84 c51 -11 95 -21 98 -24 3 -2 0 -15 -6 -29 -9
-18 -25 -28 -63 -37 -29 -7 -87 -24 -130 -38 -42 -14 -80 -23 -84 -20 -11 11
17 114 38 141 24 31 27 31 147 7z m92 -120 c5 -11 10 -23 10 -28 0 -9 -40 -58
-106 -131 l-41 -45 -45 26 c-46 27 -74 59 -80 93 -2 16 15 25 117 60 146 50
132 48 145 25z m-652 -38 c50 -78 66 -142 60 -238 -5 -66 -13 -99 -36 -150
-53 -112 -57 -114 -58 -21 0 45 -8 105 -17 135 -19 61 -83 181 -97 181 -22 0
-8 29 20 40 34 14 80 64 80 86 0 26 18 14 48 -33z m713 -32 c20 -19 20 -19 1
-57 -11 -22 -25 -56 -31 -76 -8 -23 -19 -38 -28 -38 -27 0 -94 23 -91 32 4 11
120 158 125 158 2 0 13 -9 24 -19z m-905 -78 c46 -46 86 -183 86 -296 0 -76
-25 -177 -44 -177 -14 0 -9 35 11 75 19 40 16 70 -10 102 -8 8 -7 28 0 63 10
48 10 52 -17 81 -30 34 -39 58 -41 104 -1 22 -9 35 -28 47 l-28 17 27 1 c15 0
34 -8 44 -17z m-90 -28 c4 -25 18 -44 41 -62 33 -25 35 -30 29 -71 -5 -37 -2
-49 20 -78 26 -34 26 -35 10 -77 -15 -40 -15 -47 -1 -81 15 -35 15 -39 -4 -69
-12 -18 -21 -27 -22 -22 0 6 -2 39 -4 75 -5 124 -63 285 -129 358 -20 22 -36
42 -36 45 0 3 15 8 33 10 17 2 37 5 44 5 7 1 15 -14 19 -33z m-259 -55 c5 -40
11 -54 25 -58 10 -2 18 -8 18 -13 0 -5 6 -9 14 -9 8 0 26 -10 40 -22 24 -23
24 -24 10 -87 l-13 -64 39 -41 c22 -22 40 -49 40 -58 0 -10 -14 -40 -31 -67
l-30 -50 25 -55 c28 -61 27 -72 -11 -100 l-26 -19 7 44 c28 187 -127 535 -282
631 l-37 23 95 5 c52 3 98 2 103 -1 4 -3 10 -29 14 -59z m152 38 c83 -85 149
-341 124 -478 l-9 -45 -38 69 -37 69 20 55 c12 29 21 62 21 72 0 10 -24 39
-53 64 l-53 45 4 70 4 70 -33 20 c-34 21 -34 21 -8 21 17 0 38 -12 58 -32z
m-628 -48 c39 -56 116 -219 151 -318 50 -143 69 -237 75 -379 6 -136 -6 -269
-27 -303 -6 -10 -24 -1 -67 31 -32 24 -70 51 -83 61 l-25 16 49 95 c27 51 46
99 43 104 -4 6 -33 28 -64 49 -32 20 -68 46 -80 57 l-22 20 48 93 c55 107 60
92 -57 168 -84 54 -83 45 -20 169 35 70 37 78 21 85 -37 15 -133 74 -133 82 0
8 103 29 134 26 11 0 35 -24 57 -56z m362 -56 c44 -56 116 -203 141 -285 25
-82 35 -194 24 -274 -10 -73 -46 -176 -63 -182 -5 -2 -20 18 -32 45 l-22 47
27 38 c15 21 40 58 55 84 l28 46 -23 25 c-13 14 -43 44 -68 68 l-44 43 22 68
c39 120 39 120 -55 170 -78 42 -83 46 -83 77 0 18 -3 55 -7 82 l-6 49 34 -26
c19 -14 51 -48 72 -75z m-629 54 c-4 -13 -17 -47 -30 -77 -26 -59 -30 -81 -13
-81 11 0 147 -88 154 -100 3 -4 -16 -50 -41 -101 -53 -107 -58 -92 60 -164 36
-22 66 -46 66 -53 0 -7 -20 -52 -45 -99 -25 -47 -43 -88 -41 -92 2 -3 41 -31
85 -61 44 -30 81 -58 81 -62 0 -11 -69 -126 -80 -133 -23 -14 -226 443 -272
616 -12 43 -25 79 -30 79 -5 0 -7 3 -5 8 2 4 -2 45 -9 92 -15 101 -17 189 -4
210 7 12 69 31 123 39 5 0 5 -9 1 -21z m-354 -84 c0 -3 -13 -23 -28 -43 -46
-58 -68 -101 -57 -109 6 -4 43 -42 84 -84 l73 -76 -30 -63 c-16 -35 -35 -77
-42 -94 l-12 -30 -20 50 c-58 147 -98 397 -67 421 26 21 99 41 99 28z m848
-25 c37 -12 40 -29 18 -124 -14 -58 -9 -85 16 -85 13 0 96 -63 102 -77 7 -16
-12 -69 -41 -115 -28 -46 -29 -60 -2 -84 12 -10 34 -38 50 -61 l29 -42 -46
-46 c-26 -25 -50 -45 -55 -45 -4 0 -10 35 -14 78 -15 176 -55 324 -136 504
-27 59 -49 111 -49 116 0 10 73 -1 128 -19z m-975 -131 c3 -62 10 -129 16
-148 5 -19 17 -64 27 -100 18 -69 91 -258 143 -374 17 -38 29 -71 27 -74 -3
-2 -27 14 -54 37 -28 22 -53 41 -56 41 -3 0 -6 -16 -6 -36 0 -31 -2 -35 -15
-24 -8 7 -15 16 -15 21 0 5 -18 32 -40 61 -22 29 -40 57 -40 61 0 9 80 -50 92
-67 14 -20 16 0 8 90 l-8 91 -66 66 c-36 37 -66 74 -66 82 0 8 7 50 16 94 l16
79 -36 74 c-20 41 -36 81 -36 89 0 13 53 47 76 48 7 1 13 -38 17 -111z m-108
45 c-24 -57 -55 -146 -55 -160 0 -9 24 -53 53 -97 l53 -81 -2 -78 c-1 -43 -3
-80 -6 -83 -3 -2 -18 12 -34 33 -16 21 -55 65 -87 97 -72 72 -102 132 -93 188
9 54 47 110 107 158 55 43 76 51 64 23z m400 -43 c7 0 16 8 20 18 6 16 8 15
15 -3 4 -11 13 -51 19 -90 7 -38 19 -96 27 -128 9 -33 13 -62 9 -65 -9 -9 -91
38 -137 78 -37 33 -39 37 -29 64 7 16 10 30 8 33 -2 2 11 20 30 39 19 20 31
39 28 42 -3 4 -9 1 -14 -6 -4 -6 -7 4 -7 24 0 32 1 34 10 15 5 -11 15 -21 21
-21z m123 -342 c11 -35 36 -100 56 -146 41 -95 46 -91 -72 -43 -76 32 -77 33
-49 135 15 51 39 116 44 116 0 0 10 -28 21 -62z m-135 -140 c27 -14 37 -24 33
-36 -2 -9 -10 -48 -17 -87 -7 -38 -16 -74 -20 -79 -7 -8 -25 25 -110 211 -28
62 -24 68 29 37 26 -15 64 -36 85 -46z m1056 -123 c-16 -63 -69 -116 -143
-144 -82 -30 -98 -28 -56 10 19 17 72 68 118 112 45 44 85 78 88 75 3 -3 -1
-27 -7 -53z m-744 -141 c30 -60 53 -109 51 -111 -3 -3 -74 15 -110 29 -28 11
-28 12 -22 75 8 79 17 125 23 119 3 -2 29 -53 58 -112z m-232 -24 c23 -11 60
-26 82 -33 36 -12 40 -18 39 -46 -1 -102 -5 -141 -12 -141 -8 0 -162 224 -162
235 0 8 8 6 53 -15z m794 -109 c-57 -45 -104 -107 -126 -166 -32 -85 -68 -240
-81 -350 -18 -148 -14 -154 46 -60 28 44 62 99 75 122 153 267 147 253 169
382 l17 96 13 -60 c31 -137 2 -340 -65 -461 -62 -111 -174 -205 -227 -190 -54
15 -80 50 -94 127 -25 140 -15 308 23 384 36 70 82 113 174 159 105 53 127 58
76 17z m-919 -22 c26 -23 32 -37 42 -105 7 -43 15 -87 20 -98 4 -12 42 -43 84
-71 42 -27 76 -52 76 -56 0 -10 -122 -60 -136 -55 -27 10 -47 59 -70 170 -14
63 -36 145 -49 181 -14 36 -25 68 -25 71 0 7 22 -7 58 -37z m1377 -149 c28
-40 75 -86 155 -150 194 -157 252 -250 271 -434 11 -111 2 -214 -25 -281 -12
-29 -13 -28 -19 36 -9 97 -52 240 -103 342 -25 49 -140 226 -154 237 -3 3 -36
48 -72 100 -100 146 -135 230 -129 315 1 11 13 -14 27 -55 14 -41 36 -91 49
-110z m1199 6 c6 -181 -30 -526 -55 -526 -5 0 -9 4 -9 8 0 16 -51 32 -99 32
-43 0 -50 3 -55 24 -9 35 -60 70 -91 62 -14 -4 -25 -13 -25 -22 0 -9 -5 -12
-12 -8 -10 6 -10 5 -1 -7 8 -10 23 -14 43 -11 24 3 31 0 38 -18 14 -37 -8
-117 -56 -209 -25 -47 -56 -105 -68 -129 -38 -72 -7 -103 33 -33 24 42 48 52
97 39 38 -10 69 -40 91 -89 18 -39 18 -39 -9 -94 -15 -30 -28 -55 -30 -55 -2
0 -24 21 -49 46 -25 25 -50 43 -56 40 -5 -4 -12 -2 -16 4 -3 5 -26 10 -50 10
-34 0 -43 3 -39 14 4 11 0 13 -18 9 -28 -7 -42 -22 -135 -139 -40 -50 -102
-117 -138 -148 -60 -53 -65 -56 -65 -33 0 45 124 377 141 377 3 0 18 -22 33
-50 30 -55 37 -61 29 -27 -4 18 -3 20 7 7 10 -13 11 -12 6 3 -3 11 -3 24 1 30
10 16 13 58 4 52 -5 -2 -11 21 -14 51 -5 52 -3 59 30 107 55 80 54 79 69 66 7
-6 26 -36 41 -67 15 -30 29 -50 31 -44 2 7 7 10 12 7 4 -3 3 12 -4 33 -12 39
-31 63 -83 100 l-31 22 -37 -51 c-59 -82 -165 -295 -196 -394 -7 -22 -20 -62
-30 -90 l-18 -50 -2 50 c-5 87 1 128 27 205 35 104 67 167 127 256 29 42 61
91 72 108 11 17 81 92 155 166 262 262 341 365 371 485 11 43 13 46 21 26 4
-13 10 -78 12 -145z m-1311 27 c8 -77 38 -165 99 -293 114 -239 133 -313 125
-481 -7 -132 -29 -207 -77 -256 -36 -37 -53 -42 -107 -31 -31 7 -57 23 -92 57
-52 51 -72 97 -86 204 -3 26 -10 45 -15 42 -12 -8 -24 39 -17 67 4 15 3 18 -5
10 -18 -18 -14 -159 7 -230 52 -179 261 -268 354 -150 51 63 74 144 79 274 5
138 -10 229 -58 342 -15 37 -35 85 -45 107 l-16 40 40 -45 c24 -26 38 -37 34
-25 -3 11 -10 25 -14 31 -16 20 -40 86 -30 79 6 -3 25 -27 43 -53 18 -26 40
-55 49 -65 30 -33 127 -231 154 -317 37 -115 46 -305 20 -413 -28 -118 -76
-207 -146 -271 -119 -110 -254 -131 -358 -55 -92 66 -134 188 -155 454 -5 65
-19 224 -21 240 0 6 -6 9 -13 7 -18 -3 -14 12 8 31 11 9 20 22 20 29 0 9 -4 8
-11 -2 -8 -12 -9 -9 -4 10 4 14 11 50 15 80 22 155 42 254 71 364 14 52 22 40
10 -15 -19 -83 -32 -258 -22 -277 10 -16 10 -16 11 1 0 9 4 17 8 17 10 0 29
76 37 150 13 118 82 430 84 380 1 -15 -28 -194 -49 -299 -17 -93 -13 -175 12
-218 13 -21 31 -46 40 -55 10 -10 18 -24 19 -30 2 -32 9 -67 22 -121 13 -50
14 -59 1 -64 -8 -3 -14 -13 -14 -22 0 -22 61 -95 70 -84 11 12 28 97 35 183
12 128 -22 283 -99 450 -15 35 -22 73 -26 167 -5 125 2 158 13 56z m-679 -44
c-11 -29 -16 -73 -16 -129 1 -90 6 -124 43 -263 33 -120 31 -122 -102 -122
-57 1 -162 3 -234 5 -71 3 -138 1 -149 -4 -18 -9 -18 -6 -11 50 4 32 18 82 31
110 24 51 137 184 156 184 11 0 158 99 173 117 15 18 119 102 122 99 2 -2 -4
-23 -13 -47z m2320 -117 c4 -35 3 -52 -4 -52 -6 0 -28 -11 -48 -25 -20 -14
-40 -25 -43 -25 -4 0 -9 24 -13 53 -4 28 -10 69 -13 90 -3 21 -2 37 3 35 13
-4 84 42 85 55 1 20 25 -76 33 -131z m-1874 -198 c-42 -200 -53 -524 -26 -729
7 -55 13 -101 12 -102 -1 -2 -105 170 -124 207 -7 14 -20 32 -28 41 -8 8 -14
22 -14 29 0 7 -17 43 -38 80 -21 36 -51 104 -66 150 -25 80 -26 85 -10 97 10
7 24 13 32 13 28 0 118 60 164 108 26 27 59 75 74 105 16 31 29 55 31 53 2 -1
-2 -25 -7 -52z m1459 -230 c21 -15 23 -22 17 -68 -6 -47 -42 -180 -53 -199 -2
-4 -19 8 -37 28 -24 25 -47 39 -85 48 -38 9 -51 16 -47 27 15 49 69 166 79
172 22 14 102 9 126 -8z m-2023 -28 c137 -18 196 -46 254 -121 25 -32 53 -66
62 -76 12 -12 13 -19 5 -22 -8 -2 1 -25 24 -63 19 -32 44 -78 54 -101 10 -23
22 -40 26 -37 5 3 10 -1 10 -8 2 -26 5 -34 22 -86 10 -28 22 -50 27 -47 5 3
12 0 16 -6 4 -8 3 -9 -4 -5 -16 10 -15 -19 2 -52 7 -15 16 -42 19 -59 5 -28 2
-36 -18 -49 -42 -27 -99 -14 -200 48 -108 66 -214 140 -215 151 0 4 13 7 29 7
22 0 36 8 52 31 19 27 21 40 17 106 -4 55 -10 80 -21 88 -9 7 -14 14 -12 17 3
3 -2 24 -10 47 -10 30 -12 48 -5 61 11 20 14 70 5 70 -13 0 -73 -35 -109 -64
-47 -38 -75 -100 -83 -184 l-6 -63 -39 43 c-66 74 -188 237 -203 275 -8 19
-15 43 -15 53 0 55 117 73 316 46z m1794 -409 c29 -14 70 -72 70 -98 0 -10 -6
-24 -13 -31 -7 -7 -21 -27 -31 -44 l-19 -31 -41 41 c-42 42 -103 66 -166 66
-17 0 -30 5 -30 10 0 6 3 10 8 10 4 0 18 16 32 36 13 20 33 40 45 44 31 13
117 11 145 -3z m-248 -433 c22 -16 54 -48 71 -72 42 -58 50 -157 18 -220 -11
-22 -25 -43 -30 -47 -8 -5 -31 52 -31 78 0 5 -13 28 -29 51 -44 63 -136 110
-218 110 l-62 0 19 25 c24 34 91 97 110 105 35 13 112 -1 152 -30z m-82 -204
c10 -5 28 -26 40 -46 l22 -35 -28 -31 c-51 -53 -62 -54 -102 -12 -23 25 -32
41 -26 49 5 7 20 28 34 48 27 40 32 42 60 27z m-150 -126 c64 -35 101 -101
108 -193 4 -60 2 -70 -20 -96 -43 -52 -116 -171 -157 -258 -78 -165 -128 -352
-151 -567 -17 -154 -62 -240 -125 -240 -106 0 -157 473 -84 785 45 194 153
469 208 529 65 72 138 85 221 40z"/>
<path d="M4620 10910 c-14 -4 -64 -8 -112 -9 -48 -1 -133 -10 -190 -20 -57
-11 -129 -23 -160 -27 -32 -3 -58 -10 -58 -14 0 -11 280 -24 327 -16 55 10
154 44 210 71 46 23 36 32 -17 15z"/>
<path d="M3770 10840 c-14 -4 -60 -18 -103 -30 -44 -12 -91 -29 -105 -37 -24
-13 -15 -14 102 -8 71 4 161 15 200 25 39 10 105 24 146 31 59 10 70 15 50 20
-35 10 -260 9 -290 -1z"/>
<path d="M3385 10733 c-101 -13 -197 -38 -244 -65 -63 -35 -178 -118 -184
-133 -3 -6 29 6 69 26 41 19 93 42 117 49 23 7 80 29 127 50 47 20 106 45 133
55 66 25 63 29 -18 18z"/>
<path d="M4860 8891 c0 -5 7 -25 15 -44 8 -20 21 -74 29 -121 9 -46 24 -113
35 -148 11 -35 25 -93 32 -130 7 -37 16 -65 21 -62 4 3 8 57 8 119 0 141 -19
207 -98 338 -35 57 -42 65 -42 48z"/>
<path d="M4445 8304 c16 -148 59 -253 133 -321 57 -52 96 -66 169 -60 71 5
118 31 188 102 62 62 88 177 69 297 -9 54 -24 36 -24 -27 0 -46 -8 -70 -52
-154 -51 -99 -112 -178 -155 -200 -69 -36 -145 21 -193 145 -10 27 -39 85 -64
129 -26 44 -49 97 -52 118 -11 66 -27 42 -19 -29z"/>
<path d="M3746 9024 c-78 -40 -87 -48 -82 -67 3 -12 11 -54 17 -93 l11 -71 36
13 c21 7 64 24 97 37 56 22 60 26 57 53 -4 51 -33 174 -40 173 -4 0 -47 -20
-96 -45z"/>
<path d="M4279 8697 c-13 -12 -36 -30 -51 -40 -23 -14 -28 -25 -28 -57 0 -47
15 -90 32 -90 6 0 28 11 49 25 36 26 36 27 38 100 1 40 -2 76 -7 79 -5 3 -19
-5 -33 -17z"/>
<path d="M7960 11314 c-97 -20 -239 -58 -312 -84 -48 -16 -94 -30 -103 -30 -9
0 -14 -4 -10 -9 3 -6 -3 -10 -12 -9 -32 0 -114 -10 -119 -15 -3 -2 5 -6 18 -8
31 -6 229 37 203 43 -11 3 -5 4 13 2 18 -1 49 4 69 12 113 48 365 69 528 44
106 -16 119 -24 62 -39 -58 -14 -106 -14 -163 0 -42 11 -46 10 -115 -31 -77
-46 -105 -50 -203 -31 -55 10 -65 7 -215 -66 l-94 -45 -71 10 c-101 16 -191
24 -184 17 4 -4 28 -12 54 -19 26 -6 49 -16 50 -21 2 -6 -15 -25 -38 -43 -30
-24 -46 -31 -62 -25 -11 4 -30 7 -42 8 -22 0 -28 22 -12 42 6 7 4 14 -4 19 -7
4 -10 4 -6 -1 9 -10 -16 -35 -36 -35 -27 0 -18 -27 12 -35 63 -16 124 -16 141
-1 46 45 81 64 124 70 26 4 47 3 47 -2 0 -5 19 -15 43 -23 45 -14 84 -43 70
-52 -18 -11 -142 -31 -208 -33 -90 -3 -85 -1 -78 -21 5 -12 2 -15 -9 -11 -8 4
-21 2 -29 -3 -11 -7 -11 -9 4 -9 9 0 17 -5 17 -10 0 -6 -10 -9 -22 -7 -13 2
-17 2 -10 0 9 -3 12 -14 9 -29 -2 -13 0 -24 5 -24 4 0 6 -11 4 -25 -3 -15 -1
-23 5 -20 5 4 7 10 4 15 -3 5 1 15 9 23 8 8 18 27 22 42 6 22 4 26 -7 20 -12
-8 -12 -6 0 8 16 20 32 23 27 5 -3 -7 -7 -26 -10 -43 -5 -27 -4 -27 13 9 10
21 21 33 25 27 4 -5 14 -8 24 -5 14 5 15 4 2 -5 -13 -10 -13 -12 0 -21 8 -5
11 -10 5 -10 -5 0 -15 -11 -21 -24 -11 -23 -10 -24 10 -13 11 7 24 17 29 22 5
7 10 7 15 0 4 -5 12 -11 17 -12 6 0 61 -18 123 -38 75 -24 112 -41 112 -51 0
-16 -29 -65 -45 -76 -5 -3 -21 -16 -34 -27 -42 -37 -59 -36 -94 4 -76 88 -87
99 -93 92 -4 -4 -2 -7 4 -7 7 0 12 -5 12 -11 0 -7 10 -21 23 -33 39 -39 69
-78 63 -84 -4 -3 2 -15 12 -26 10 -12 26 -41 35 -65 15 -40 15 -47 2 -68 -17
-26 -26 -28 -43 -11 -7 7 -12 8 -12 2 0 -6 8 -18 18 -27 17 -15 19 -14 37 16
10 17 23 35 28 38 5 4 -1 25 -12 47 -29 56 -27 65 18 90 150 85 174 265 52
390 -26 27 -62 55 -79 63 -18 8 -32 17 -32 20 0 14 28 15 136 6 61 -6 121 -7
135 -4 13 4 45 27 71 53 l48 45 107 -3 c104 -2 110 -1 148 25 46 32 59 32 144
8 63 -17 65 -17 119 3 52 19 57 19 138 3 46 -8 98 -22 116 -31 18 -8 56 -21
83 -29 28 -9 109 -36 180 -62 72 -26 151 -55 177 -64 68 -23 69 -32 1 -15
-207 50 -568 76 -742 53 -199 -26 -370 -144 -510 -352 -107 -160 -148 -401
-100 -593 12 -46 19 -87 16 -90 -3 -4 -18 3 -34 13 -15 11 -39 25 -53 32 -25
12 -18 5 64 -60 18 -15 18 -19 6 -50 -8 -19 -16 -36 -19 -39 -3 -3 -13 -14
-21 -25 -11 -15 -5 -13 22 8 59 43 79 37 107 -32 20 -51 23 -77 25 -207 1
-192 -15 -243 -132 -413 -51 -74 -62 -95 -51 -103 11 -7 9 -8 -6 -6 -15 2 -22
-6 -31 -31 -8 -24 -13 -30 -18 -20 -3 8 -4 4 -2 -8 2 -13 -1 -21 -7 -20 -6 1
-12 -7 -14 -18 -3 -15 -2 -16 5 -7 5 8 13 12 18 11 15 -5 75 82 72 105 -2 12
3 21 11 21 39 0 159 198 182 300 24 111 19 321 -10 359 -4 6 -8 20 -8 32 -1
11 -11 47 -23 80 -12 32 -32 91 -45 129 -26 81 -42 229 -26 240 6 3 11 -2 11
-12 0 -10 21 -67 47 -128 25 -60 61 -146 79 -190 88 -214 94 -443 14 -608 -10
-21 -22 -51 -25 -67 -4 -17 -10 -30 -15 -30 -13 0 -20 -44 -8 -51 17 -10 28
-1 28 22 0 10 5 19 10 19 6 0 10 8 10 18 0 15 -2 15 -11 2 -9 -13 -10 -13 -6
0 2 8 9 14 15 13 15 -4 27 21 65 126 27 77 31 98 31 208 1 66 4 119 9 116 4
-2 19 -28 34 -56 21 -42 27 -70 31 -142 4 -94 -6 -150 -47 -255 -21 -53 -21
-54 -1 -30 11 14 32 61 46 104 22 64 27 99 27 175 1 143 -34 240 -146 406 -76
112 -156 289 -169 371 -8 48 -15 70 -20 62 -6 -9 -8 -7 -4 7 3 11 8 43 12 70
8 59 59 192 85 219 17 18 17 16 -1 -43 -27 -84 -33 -165 -20 -267 18 -142 54
-228 171 -401 169 -252 215 -441 144 -600 -26 -57 -123 -161 -217 -232 -32
-24 -55 -47 -52 -52 3 -5 -1 -9 -9 -9 -8 0 -26 -12 -41 -27 -37 -37 -43 -22
-18 40 12 29 22 60 22 70 0 10 4 16 9 13 5 -3 12 1 15 10 10 25 7 34 -9 34
-15 0 -55 -68 -55 -94 0 -7 -6 -16 -13 -19 -8 -3 -24 -43 -36 -89 -13 -45 -26
-90 -31 -99 -16 -30 -22 -86 -11 -93 6 -4 11 -13 11 -19 0 -8 -3 -8 -9 1 -13
21 -19 -5 -27 -110 -6 -73 -9 -89 -18 -74 -11 18 -130 179 -151 203 -35 41
-200 203 -207 203 -4 0 -8 7 -8 15 0 8 -4 15 -8 15 -11 0 -49 115 -57 170 -10
76 -7 232 4 243 6 6 11 18 11 26 0 12 -3 12 -12 3 -18 -18 -28 -15 -28 10 0
21 -1 21 -17 5 -15 -14 -15 -21 -5 -37 16 -27 15 -35 -3 -20 -18 15 -20 -1 -3
-18 9 -9 7 -19 -7 -46 -18 -33 -18 -34 2 -69 12 -19 18 -39 13 -43 -17 -20
-28 -72 -17 -83 6 -6 7 -14 3 -18 -4 -4 -25 12 -47 35 -22 23 -42 42 -45 42
-14 0 4 -29 68 -106 74 -91 126 -141 141 -136 5 1 6 -1 3 -6 -3 -5 40 -56 95
-113 122 -127 218 -257 268 -364 58 -122 83 -172 77 -152 -3 9 -2 17 3 17 5 0
12 -11 15 -25 4 -14 11 -25 16 -25 13 0 13 -4 -9 55 -36 95 -45 182 -33 309 8
80 18 128 32 157 12 22 19 48 15 57 -3 9 -3 13 1 10 3 -4 23 14 44 40 44 55
75 84 190 177 124 101 157 144 196 255 l24 65 0 -53 c0 -81 -53 -190 -160
-333 -50 -65 -90 -121 -90 -125 0 -3 -10 -20 -22 -37 -61 -85 -140 -251 -161
-337 -24 -100 -31 -184 -17 -209 6 -13 14 -21 16 -18 3 2 9 46 15 98 6 51 22
129 36 173 30 97 115 275 149 311 13 14 39 50 58 79 56 88 69 78 20 -15 -26
-52 -3 -47 30 6 12 18 21 24 24 17 2 -7 -1 -19 -7 -26 -14 -17 -68 -146 -92
-221 -40 -127 -34 -346 12 -438 26 -52 58 -87 78 -87 10 0 12 3 5 8 -6 4 -16
16 -22 27 -8 14 -12 16 -12 5 -1 -8 -12 26 -26 75 -22 80 -24 106 -21 230 4
153 14 195 80 335 61 131 105 234 113 265 4 17 10 35 15 40 4 6 12 39 16 73
11 87 27 70 63 -73 28 -112 35 -157 60 -385 27 -255 22 -419 -16 -491 -18 -36
-85 -99 -104 -99 -13 0 -13 -1 0 -10 23 -15 40 -12 40 6 0 10 6 14 14 11 20
-8 71 50 96 108 48 112 41 439 -15 706 -20 96 -18 107 6 39 49 -138 78 -378
80 -664 1 -118 4 -180 9 -161 8 27 8 26 7 -12 -2 -74 11 -58 20 24 13 125 7
425 -11 551 -21 147 -22 145 19 76 51 -86 120 -146 206 -180 70 -27 71 -28 66
-60 -3 -17 -19 -60 -35 -95 -16 -35 -44 -98 -63 -139 -18 -41 -36 -77 -40 -80
-8 -7 -71 -117 -88 -155 -7 -16 -17 -37 -21 -46 -5 -9 -4 -22 1 -30 12 -19 11
-32 -1 -24 -5 3 -10 1 -10 -4 0 -6 -5 -11 -12 -11 -9 0 -9 3 0 12 14 14 16 32
2 23 -5 -3 -14 -20 -19 -38 l-8 -32 -12 30 c-9 21 -9 36 -2 53 13 28 14 65 2
58 -5 -4 -12 0 -15 6 -3 7 -3 -2 0 -21 3 -18 2 -31 -2 -28 -5 3 -10 -12 -11
-33 -1 -21 -9 -58 -17 -81 -9 -27 -12 -45 -6 -47 6 -2 10 -8 10 -13 0 -6 -4
-7 -10 -4 -6 3 -10 -4 -10 -17 0 -18 -2 -20 -10 -8 -6 9 -10 10 -10 3 0 -7
-13 -27 -29 -45 -23 -26 -26 -35 -16 -45 9 -8 15 -9 24 0 7 7 11 7 11 1 0 -20
48 -34 77 -23 15 6 41 12 58 14 42 5 165 57 159 67 -3 4 -36 8 -73 8 -88 0
-99 11 -83 81 7 28 9 56 5 61 -3 6 -2 8 4 5 10 -6 43 52 43 76 0 7 7 25 15 41
8 15 12 32 9 37 -3 5 -1 9 5 9 6 0 37 53 69 118 67 134 119 218 153 247 70 59
188 86 364 84 74 0 138 2 144 6 6 3 11 -2 12 -12 0 -16 1 -16 9 2 6 13 8 -2 7
-47 -1 -36 -5 -64 -9 -62 -4 3 -8 0 -8 -7 0 -14 -118 -177 -168 -231 -21 -22
-47 -51 -60 -65 -13 -14 -26 -22 -30 -18 -4 4 -5 33 -4 65 5 87 -29 156 -99
204 -77 52 -84 50 -85 -33 -1 -44 -8 -83 -19 -107 -26 -55 -32 -157 -11 -189
9 -14 23 -25 31 -25 8 0 15 -4 15 -9 0 -5 12 -11 28 -13 26 -3 25 -4 -28 -46
-30 -23 -66 -51 -78 -62 -13 -11 -29 -20 -35 -20 -7 0 -23 -9 -37 -20 -14 -11
-29 -20 -35 -20 -12 -1 -55 -35 -55 -44 0 -3 8 -6 18 -6 26 1 157 85 154 99
-1 7 2 9 8 6 13 -8 90 42 90 58 0 6 3 7 6 4 13 -12 148 109 139 124 -4 5 0 6
8 4 12 -5 57 37 146 141 45 52 117 159 101 149 -10 -6 -12 -4 -7 9 4 10 7 20
7 22 0 3 4 2 10 -1 12 -8 37 52 46 112 5 37 9 44 15 28 7 -18 8 -18 8 5 0 14
4 42 7 63 6 38 6 39 -16 27 -13 -7 -19 -17 -16 -26 3 -8 9 -21 12 -29 4 -10 0
-13 -15 -10 -18 3 -20 1 -11 -14 10 -20 3 -88 -11 -97 -4 -2 -6 17 -2 44 3 29
1 58 -6 70 -11 20 -20 22 -99 22 -48 0 -135 -5 -194 -11 -138 -15 -194 -7
-200 26 -5 22 6 82 31 173 8 27 7 32 -8 32 -14 0 -20 -16 -30 -78 -14 -88 -15
-89 -55 -120 -41 -31 -85 -28 -132 9 -159 126 -241 340 -214 560 12 103 25
140 34 99 3 -14 8 -52 11 -85 6 -62 30 -139 50 -165 7 -8 27 -44 46 -80 19
-36 37 -67 40 -70 3 -3 20 -27 37 -55 18 -29 32 -43 32 -32 0 9 12 36 27 58
26 39 26 42 14 102 -6 34 -24 98 -38 142 -24 73 -33 87 -98 151 l-72 71 57
-22 c100 -39 225 -138 235 -186 8 -34 25 -48 25 -20 0 11 5 31 11 45 10 21 17
24 43 19 17 -3 36 -13 41 -22 22 -35 104 -109 175 -156 41 -27 90 -62 108 -77
22 -19 44 -28 67 -28 18 0 37 -4 40 -10 3 -5 17 -10 31 -10 33 0 22 17 -25 39
-52 24 -133 71 -157 93 -20 18 -20 18 59 99 43 44 105 122 138 172 33 51 66
101 74 112 14 18 15 17 14 -15 -1 -91 -10 -108 -88 -168 l-75 -57 -22 -90
c-13 -49 -21 -91 -19 -94 3 -2 40 19 83 48 l79 52 16 97 c17 100 27 118 90
153 16 9 17 7 11 -18 -4 -15 -13 -40 -20 -54 -7 -14 -25 -86 -41 -159 -17 -83
-35 -145 -49 -165 -20 -31 -21 -32 -3 -28 35 9 57 52 79 151 70 307 241 593
466 778 142 117 146 121 138 153 -4 21 -3 23 10 12 12 -10 17 -9 25 8 14 25
14 42 0 18 -14 -24 -38 -5 -33 26 2 12 -4 -3 -15 -33 -10 -30 -16 -58 -14 -62
2 -4 -2 -5 -10 -2 -8 3 -17 16 -20 29 -2 14 0 22 4 19 13 -8 10 7 -6 36 -7 14
-17 24 -22 22 -15 -6 -15 29 1 46 13 16 12 22 -15 69 -35 60 -95 117 -116 109
-8 -3 -12 -2 -8 3 16 27 -219 131 -411 182 -290 77 -390 89 -804 99 -366 9
-469 20 -573 64 -72 30 -71 95 1 153 93 75 215 113 382 120 145 6 266 -9 515
-63 149 -32 434 -120 480 -149 11 -6 33 -15 48 -19 26 -6 77 -29 202 -88 94
-44 183 -98 228 -138 30 -27 47 -36 50 -28 4 9 6 7 6 -3 1 -9 8 -22 16 -29 13
-11 15 -10 9 6 -5 18 -5 18 10 0 9 -11 16 -15 16 -9 0 15 -64 78 -125 123 -55
41 -183 109 -315 169 -41 18 -98 44 -126 57 -150 70 -583 239 -729 285 -49 15
-119 38 -155 50 -36 11 -85 27 -110 36 -81 26 -233 64 -315 79 -84 15 -292 26
-335 18z m-315 -396 c27 -24 33 -42 42 -122 6 -48 5 -49 -18 -42 -13 4 -34 10
-46 13 -13 3 -23 9 -23 13 0 4 -19 10 -42 14 -83 13 -139 37 -149 64 -5 14 -6
29 -2 33 6 6 158 41 205 48 4 1 18 -9 33 -21z m465 -126 c0 -21 64 -92 82 -92
7 0 20 -5 28 -10 12 -8 10 -14 -12 -37 -60 -63 -119 -237 -113 -334 3 -33 2
-59 0 -59 -2 0 -17 24 -33 53 -70 122 -86 285 -37 381 52 101 85 139 85 98z
m-116 -119 c-22 -54 -29 -161 -15 -235 7 -37 31 -98 57 -147 25 -46 43 -85 41
-87 -9 -9 -100 100 -119 144 -36 81 -23 232 29 335 20 40 26 33 7 -10z m434 0
c-16 -2 -28 -8 -28 -13 0 -5 6 -7 13 -4 7 2 21 -2 31 -9 17 -13 16 -15 -13
-40 -31 -26 -68 -94 -57 -104 3 -3 10 5 15 18 5 13 26 44 47 67 35 39 43 43
74 40 l35 -5 -32 -13 c-40 -17 -49 -37 -22 -45 19 -7 20 -8 3 -26 -9 -10 -14
-19 -10 -19 4 0 2 -9 -4 -19 -5 -11 -7 -26 -4 -35 5 -12 16 -9 65 17 54 30 59
35 59 67 1 79 1 79 108 77 53 -1 97 -6 98 -12 2 -5 -15 -21 -38 -35 -58 -36
-132 -131 -183 -235 -61 -125 -85 -219 -85 -333 l0 -93 -30 21 c-36 26 -36 31
-5 99 l25 53 -34 56 c-39 61 -39 64 19 126 20 22 33 46 30 54 -3 7 -7 25 -10
38 -3 13 -7 35 -10 49 -6 30 -17 26 -79 -29 l-40 -35 24 -75 c18 -59 21 -78
11 -89 -22 -27 -60 -111 -53 -117 4 -3 24 -26 45 -52 37 -46 44 -71 28 -97
-10 -16 -50 47 -76 119 -33 92 -28 292 9 401 10 28 12 47 6 53 -9 9 -15 -5
-11 -28 1 -5 -6 -17 -16 -28 -9 -10 -17 -34 -17 -53 0 -18 -3 -32 -7 -30 -10
7 -30 -71 -36 -139 -3 -33 -7 -63 -8 -64 -2 -2 -11 8 -21 23 -16 25 -16 30 -2
68 14 38 13 46 -2 82 l-17 40 -16 -32 c-21 -39 -21 -60 -2 -97 17 -32 20 -76
5 -76 -12 0 -37 88 -45 160 -8 68 14 177 51 261 28 62 47 79 86 79 23 -1 23
-1 -4 -23 -22 -17 -28 -32 -28 -60 0 -20 4 -37 8 -37 17 0 50 46 64 87 10 30
17 40 25 32 7 -7 14 -5 23 6 7 8 24 14 39 14 l26 -2 -27 -4z m815 -82 c32 -2
17 -19 -52 -60 l-69 -40 39 -81 c61 -126 62 -117 -36 -179 -47 -30 -85 -59
-85 -64 0 -5 20 -47 45 -95 25 -47 45 -89 45 -92 0 -4 -38 -33 -85 -65 -47
-32 -85 -62 -85 -68 0 -5 15 -35 34 -66 18 -31 41 -70 50 -88 l16 -32 -87 -66
-88 -65 -11 33 c-21 59 -35 204 -28 289 7 106 37 249 74 360 39 116 129 303
171 353 33 40 34 41 84 34 27 -4 58 -8 68 -8z m-423 -43 c0 -106 -5 -113 -96
-163 -46 -26 -84 -48 -84 -49 0 -2 11 -43 25 -91 14 -48 24 -91 23 -96 -2 -4
-31 -37 -66 -73 l-63 -65 27 -43 c15 -24 40 -60 57 -81 l30 -38 -23 -50 c-13
-27 -28 -48 -34 -46 -20 6 -56 116 -67 199 -10 83 -3 162 22 248 28 93 101
244 149 304 23 29 84 86 93 86 4 0 7 -19 7 -42z m650 -15 c3 -2 5 -44 4 -91
-1 -192 -80 -445 -249 -796 -40 -83 -70 -135 -76 -129 -5 5 -25 35 -44 67 -34
56 -43 86 -27 86 4 0 20 11 36 25 16 13 51 39 77 56 27 17 49 33 49 35 0 2
-20 42 -45 88 -25 47 -45 91 -45 98 0 7 30 31 66 53 112 69 110 63 58 166 -24
49 -44 92 -44 96 0 5 35 28 76 53 112 67 108 58 68 144 -19 41 -34 77 -34 79
0 5 123 -23 130 -30z m-516 -145 c-90 -179 -142 -359 -151 -525 -3 -62 -9
-113 -13 -113 -3 0 -30 22 -60 48 l-54 48 24 40 c13 21 37 54 54 72 28 30 29
34 16 55 -29 47 -69 131 -64 138 2 5 35 30 72 56 l68 48 -12 50 c-7 28 -13 67
-13 87 -1 35 1 37 47 52 49 16 102 24 114 18 4 -2 -8 -35 -28 -74z m834 61
c12 -5 23 -18 23 -29 1 -11 2 -35 3 -52 4 -81 -79 -398 -104 -398 -4 0 -11 12
-14 28 -4 15 -20 53 -37 84 -16 31 -29 61 -29 65 0 4 36 46 79 91 l79 84 -16
31 c-8 18 -18 34 -22 37 -10 8 -50 68 -50 75 0 7 51 -2 88 -16z m132 -62 c30
-15 60 -33 67 -39 7 -6 13 -7 13 -3 0 4 19 -16 43 -43 23 -28 44 -46 46 -40 2
6 -2 14 -9 18 -9 6 -10 12 -1 26 10 18 10 18 11 -3 0 -13 4 -23 8 -23 4 0 8
-17 9 -37 0 -21 2 -61 3 -90 2 -43 -3 -58 -28 -95 -16 -23 -45 -56 -62 -73
-18 -16 -54 -56 -81 -87 -26 -32 -50 -54 -52 -50 -3 4 -5 40 -6 81 -1 41 -2
75 -4 77 -4 4 -29 -19 -80 -72 -47 -49 -48 -52 -57 -138 -6 -49 -9 -90 -7 -92
3 -3 32 18 85 63 14 12 27 21 29 19 2 -1 -23 -42 -55 -89 l-57 -87 -5 41 -5
41 -59 -46 c-33 -25 -61 -44 -63 -43 -1 2 15 39 36 83 21 43 53 117 71 164 17
47 36 93 41 102 14 27 69 250 73 299 2 24 4 74 5 111 1 76 -4 75 91 25z m-364
-120 c71 -106 71 -104 32 -139 -18 -16 -58 -46 -88 -65 -30 -20 -56 -37 -58
-38 -2 -2 4 -17 12 -34 9 -16 16 -41 16 -54 0 -12 4 -27 10 -33 5 -5 13 -30
16 -54 6 -44 5 -45 -28 -59 -56 -23 -141 -51 -144 -48 -2 1 13 41 32 87 62
150 97 262 130 418 9 45 20 82 23 82 3 0 25 -29 47 -63z m-1380 -193 c105 -86
174 -165 221 -253 21 -38 15 -37 -15 5 -29 40 -202 202 -202 189 0 -25 92
-174 134 -216 46 -46 47 -49 16 -30 -99 59 -199 192 -229 306 -20 72 -15 72
75 -1z m1449 -316 c-55 -120 -70 -146 -79 -137 -2 2 -9 36 -15 74 -5 39 -13
80 -16 91 -6 19 5 28 77 67 46 25 84 42 86 37 2 -4 -22 -64 -53 -132z m-1318
-27 c32 -21 77 -48 100 -60 69 -35 72 -44 73 -235 0 -93 -1 -168 -3 -165 -2 2
-24 56 -48 119 -23 63 -45 117 -49 120 -3 3 -22 39 -42 80 -20 41 -51 99 -68
128 -17 28 -28 52 -26 52 3 0 31 -17 63 -39z m358 -135 c39 -36 65 -66 59 -66
-25 0 -138 51 -174 80 -29 23 -43 44 -54 84 -9 30 -16 60 -16 67 0 7 26 -12
58 -43 31 -31 89 -86 127 -122z m649 -5 c10 -70 10 -93 1 -101 -22 -19 -85
-40 -116 -40 -30 0 -31 1 -16 18 10 10 17 22 17 25 0 13 93 197 97 193 3 -3
11 -45 17 -95z m206 -36 c0 -12 -104 -177 -134 -211 l-34 -39 -8 85 c-5 47 -9
89 -9 93 0 5 38 24 85 42 88 35 100 38 100 30z"/>
<path d="M9888 10278 c-33 -72 -37 -87 -28 -118 5 -19 12 -57 15 -83 l6 -48
33 43 c64 85 80 119 68 139 -7 10 -12 27 -13 36 0 10 -10 40 -22 66 l-22 49
-37 -84z"/>
<path d="M5025 10968 c-51 -59 -53 -51 42 -127 48 -39 90 -67 94 -63 15 16 67
192 58 197 -5 3 -46 8 -91 11 -77 4 -84 3 -103 -18z m136 2 c46 0 49 -13 21
-87 -11 -26 -22 -56 -25 -66 -6 -16 -16 -11 -76 35 -39 29 -70 58 -70 63 -1 6
11 23 25 39 22 23 32 27 57 22 16 -3 47 -6 68 -6z"/>
<path d="M7839 10986 c-3 -3 -26 -6 -52 -7 -29 -2 -47 -7 -47 -15 0 -20 62
-184 70 -184 4 0 23 14 41 30 19 17 53 45 77 62 23 17 42 36 42 42 0 6 -14 26
-30 44 -22 24 -38 32 -63 32 -19 0 -36 -2 -38 -4z m92 -33 c16 -16 29 -31 29
-34 0 -9 -137 -119 -147 -119 -8 0 -57 132 -58 155 0 9 54 20 118 23 19 1 39
-7 58 -25z"/>
<path d="M8297 10909 c13 -12 110 -48 187 -69 62 -16 93 -18 209 -13 76 3 137
9 137 13 0 10 -260 50 -330 51 -36 0 -98 6 -138 13 -40 7 -69 9 -65 5z"/>
<path d="M8960 10840 l-45 -6 60 -13 c33 -7 92 -21 130 -31 39 -10 121 -21
184 -24 63 -4 126 -9 140 -13 50 -11 7 14 -54 32 -33 9 -88 26 -121 37 -63 20
-208 28 -294 18z"/>
<path d="M9495 10743 c6 -5 33 -18 60 -28 28 -10 79 -32 115 -50 36 -18 103
-45 150 -60 47 -15 108 -39 135 -52 l50 -25 -35 32 c-52 47 -151 115 -185 128
-46 17 -104 30 -180 42 -38 5 -81 13 -95 16 -16 4 -22 3 -15 -3z"/>
<path d="M5940 10532 c0 -10 -6 -30 -12 -45 -12 -25 -16 -27 -48 -21 -19 4
-50 8 -68 10 l-33 3 23 -24 c13 -14 38 -27 56 -31 38 -7 39 -19 11 -81 -18
-39 -19 -49 -8 -69 17 -33 32 -30 25 4 -4 17 2 44 17 77 l24 50 19 -35 19 -35
3 26 c2 18 11 29 25 33 35 9 87 7 87 -4 0 -5 4 -10 9 -10 5 0 4 11 -2 24 -9
18 -15 21 -27 14 -15 -9 -103 22 -115 42 -3 5 -1 27 4 49 5 24 5 41 0 41 -5 0
-9 -8 -9 -18z"/>
<path d="M7578 9736 c-25 -6 -50 -14 -54 -18 -4 -5 -15 -8 -24 -8 -9 0 -17 -6
-17 -14 0 -11 6 -12 24 -5 36 13 95 10 117 -6 11 -8 25 -15 30 -15 6 0 0 9
-14 20 -14 11 -20 20 -15 19 15 0 46 -25 43 -35 -3 -15 13 -54 22 -54 16 0 31
-77 24 -122 -6 -38 -57 -238 -83 -325 -13 -45 -5 -41 19 10 11 23 41 80 67
127 38 71 46 95 48 145 1 33 6 78 9 100 5 23 3 52 -3 69 -9 23 -16 27 -36 23
-28 -5 -38 5 -43 42 -7 55 -33 66 -114 47z"/>
<path d="M5314 9614 c3 -9 6 -29 6 -46 0 -26 2 -29 15 -18 15 13 60 7 82 -11
9 -8 7 -15 -8 -30 -27 -27 -24 -74 6 -104 29 -30 35 -30 85 -6 l40 19 0 -34
c0 -28 -4 -35 -25 -40 -32 -8 -110 11 -154 38 l-33 21 11 -21 c7 -12 19 -22
28 -22 9 0 14 -3 10 -6 -8 -8 38 -46 83 -69 51 -25 68 -43 76 -78 l6 -31 19
22 c24 31 42 125 34 180 -7 49 -39 125 -58 140 -7 5 -46 24 -87 42 -41 19 -87
42 -102 52 -32 22 -42 23 -34 2z"/>
<path d="M7572 9589 c-40 -20 -85 -47 -100 -60 -15 -13 -29 -23 -32 -22 -13 4
-40 -33 -52 -71 -13 -36 -12 -45 3 -76 10 -19 19 -28 20 -20 1 8 3 24 4 35 5
62 2 58 34 36 16 -12 41 -21 55 -21 59 0 88 79 44 120 -23 21 -23 21 -3 33 37
20 73 18 90 -6 l17 -22 -7 25 c-10 34 -10 32 -1 58 4 13 6 24 4 25 -1 1 -36
-14 -76 -34z"/>
<path d="M8343 9230 c1 -104 0 -106 -46 -213 -58 -131 -77 -218 -77 -343 0
-92 24 -234 39 -234 15 0 40 36 79 115 54 109 62 140 68 285 5 109 2 142 -20
254 -14 72 -26 144 -27 160 -1 17 -5 42 -9 56 -5 15 -7 -16 -7 -80z"/>
<path d="M6960 9240 c-1 -19 -5 -82 -9 -140 -5 -58 -4 -115 0 -128 6 -15 5
-21 -1 -17 -6 4 -10 -14 -10 -48 0 -45 4 -57 28 -79 15 -15 40 -32 55 -37 28
-11 28 -10 23 16 -12 59 -25 194 -32 328 -4 83 -10 132 -15 120 -8 -20 -8 -20
-8 0 -1 15 -3 17 -10 6 -7 -11 -9 -11 -14 0 -3 8 -6 -2 -7 -21z"/>
<path d="M8062 8845 c-91 -153 -113 -244 -97 -391 l8 -69 17 75 c10 41 27 111
39 155 11 44 25 107 30 140 5 33 14 75 19 93 14 41 9 41 -16 -3z"/>
<path d="M7261 8839 c-11 -12 -23 -34 -26 -50 -6 -25 -9 -27 -25 -16 -15 9
-30 8 -67 -1 -60 -16 -70 -26 -49 -47 9 -9 16 -12 16 -6 0 14 70 14 104 1 15
-5 31 -22 38 -37 6 -16 24 -57 39 -92 16 -35 29 -64 29 -66 0 -2 -17 -6 -37
-10 -52 -10 -89 -30 -115 -65 -12 -17 -25 -27 -28 -23 -4 5 -15 36 -25 70 -10
34 -21 60 -26 58 -4 -3 -9 -2 -12 2 -5 10 1 -12 10 -34 5 -12 2 -15 -9 -10
-17 6 -17 5 30 -128 23 -66 99 -224 112 -235 3 -3 23 -31 44 -63 20 -31 41
-55 46 -52 5 3 12 0 16 -6 4 -8 3 -9 -4 -5 -24 15 -10 -11 33 -58 26 -28 48
-45 55 -41 8 5 3 16 -15 35 -30 31 -28 60 8 102 33 38 80 58 135 58 55 0 97
-17 132 -55 24 -26 50 -33 50 -14 0 6 -30 43 -66 82 -68 71 -211 258 -235 306
-7 14 -22 37 -31 50 -27 36 -86 165 -104 228 -30 102 20 137 101 69 39 -33 39
-33 26 -72 -7 -21 -15 -45 -18 -53 -3 -8 -1 -11 6 -7 7 5 9 1 5 -8 -3 -9 -10
-13 -15 -10 -5 3 -6 -2 -3 -11 4 -9 9 -13 12 -10 3 3 13 -6 22 -20 l17 -26 18
41 c32 70 39 70 90 -8 49 -76 52 -89 32 -130 -14 -29 -15 -87 -2 -100 5 -4 5
-1 0 7 -6 10 -4 12 4 7 7 -5 10 -14 7 -22 -9 -24 18 -10 37 19 11 15 22 27 26
27 4 0 26 -39 49 -87 30 -64 40 -78 36 -53 -16 102 -154 367 -234 450 -8 8
-24 26 -35 40 -11 14 -41 42 -66 63 -55 44 -106 50 -138 16z m73 -365 c20 -8
108 -133 101 -143 -2 -5 -16 -6 -30 -3 -47 8 -108 -17 -140 -58 -16 -22 -34
-39 -40 -39 -5 -1 -20 26 -33 59 -21 54 -21 62 -9 92 31 72 98 112 151 92z
m111 -194 c29 -6 52 -22 82 -57 24 -26 43 -50 43 -53 0 -3 -22 -6 -49 -7 -67
-3 -126 -29 -160 -70 -16 -20 -34 -33 -39 -29 -6 3 -22 28 -37 54 -24 43 -26
50 -14 82 14 40 27 55 66 75 32 17 53 18 108 5z"/>
<path d="M8637 8643 c-6 -65 -5 -69 21 -91 30 -26 82 -55 87 -50 2 2 7 33 11
69 l6 66 -50 36 c-27 20 -54 37 -59 37 -6 0 -13 -30 -16 -67z"/>
<path d="M6720 8641 c0 -11 6 -22 13 -24 9 -4 9 -8 -2 -15 -9 -7 -10 -12 -2
-16 6 -4 10 -17 9 -29 -2 -36 57 -234 96 -320 15 -32 28 -66 30 -75 3 -19 10
-37 37 -101 11 -24 19 -49 19 -57 0 -7 4 -15 9 -18 5 -4 7 3 4 14 -7 27 5 25
17 -2 8 -19 9 -17 4 12 -4 26 -3 31 5 20 6 -8 11 -33 11 -55 -1 -37 -2 -39
-15 -21 -8 11 -15 15 -15 9 0 -7 5 -15 10 -18 6 -3 10 -20 10 -37 0 -16 6 -42
14 -56 8 -15 20 -47 27 -72 15 -51 30 -70 54 -70 14 0 16 6 10 28 -4 15 -11
52 -16 82 -14 82 -44 212 -77 330 -52 186 -82 304 -82 323 0 10 -4 16 -8 13
-4 -2 -6 11 -4 30 3 20 0 34 -7 34 -6 0 -8 7 -4 16 4 12 2 15 -8 12 -8 -3 -20
1 -27 9 -19 19 -34 16 -28 -4 3 -10 1 -25 -4 -33 -6 -10 -8 -1 -5 27 3 33 0
41 -10 36 -9 -3 -17 5 -21 21 -7 31 -44 37 -44 7z"/>
<path d="M7064 8425 c4 -20 1 -37 -8 -50 -9 -11 -16 -15 -16 -8 0 6 5 15 10
18 6 3 10 11 10 16 0 6 -7 3 -16 -5 -21 -21 -23 -20 -17 7 4 18 3 19 -6 7 -12
-16 -5 -83 10 -110 6 -10 7 -3 4 20 -5 34 -5 34 6 7 7 -19 8 -32 1 -40 -30
-36 93 -352 223 -577 63 -108 65 -113 66 -160 1 -44 1 -44 11 -16 8 21 8 43 0
75 -7 25 -10 64 -8 86 3 30 -4 55 -28 103 -18 34 -36 59 -40 55 -4 -4 -4 0 -1
10 4 9 -2 30 -13 49 -32 51 -90 219 -132 376 -20 79 -43 149 -50 155 -10 10
-11 6 -6 -18z"/>
<path d="M6505 8033 c11 -27 14 -77 4 -88 -4 -6 -6 -23 -3 -38 2 -15 6 -39 8
-53 3 -14 12 -34 20 -43 9 -10 13 -21 9 -25 -4 -4 -1 -12 7 -17 27 -19 -33 2
-68 23 -20 12 -31 26 -28 34 4 11 0 10 -19 -2 -14 -9 -25 -26 -25 -38 0 -30
27 -66 49 -66 29 0 63 -33 64 -62 1 -16 7 -24 15 -21 13 5 17 -12 5 -20 -5 -2
-2 -2 5 -1 6 2 12 -2 13 -9 0 -7 5 -1 10 13 6 14 13 77 16 140 5 110 -2 164
-33 237 -3 7 7 13 28 15 l33 3 -34 18 c-19 9 -45 17 -59 17 -19 0 -23 -4 -17
-17z"/>
<path d="M5945 7998 c-14 -41 -37 -150 -56 -263 -26 -156 -32 -452 -11 -550
34 -153 99 -318 257 -650 84 -177 132 -304 160 -429 44 -197 62 -243 109 -283
l26 -23 -21 -34 c-71 -121 -23 -376 71 -376 37 0 74 46 91 113 18 73 7 217
-20 263 l-22 37 31 30 c42 42 54 67 79 172 41 172 52 211 88 305 20 52 79 185
131 295 138 293 175 384 168 418 -5 26 -33 65 -40 56 -14 -19 -26 -72 -21 -90
5 -13 3 -19 -3 -15 -5 3 -12 -5 -16 -17 -6 -26 -46 -76 -46 -58 0 6 4 19 9 29
43 85 57 224 28 278 l-16 29 -1 -31 c0 -17 -7 -70 -15 -116 -8 -47 -16 -106
-17 -132 -2 -25 -6 -46 -10 -46 -5 0 -8 -9 -8 -20 0 -11 -4 -20 -10 -20 -13 0
-13 31 -1 63 5 14 14 85 20 158 10 118 9 138 -7 186 -9 29 -20 53 -23 53 -4 0
-9 -78 -12 -172 -5 -186 -35 -387 -82 -564 -22 -84 -63 -215 -69 -221 -1 -1
-1 78 0 175 1 148 5 189 23 252 65 225 91 493 56 576 -12 30 -17 34 -33 25
-11 -6 -24 -23 -30 -38 -22 -54 -51 -178 -51 -213 0 -19 -6 -69 -15 -110 -20
-96 -20 -313 -1 -445 15 -105 19 -283 7 -350 l-7 -40 -14 32 c-11 26 -11 48
-1 117 13 96 3 158 -50 291 -15 38 -31 88 -34 111 -4 22 -13 58 -20 79 -14 40
-5 101 24 170 7 17 12 42 11 58 -2 15 2 27 7 27 8 0 22 51 27 95 0 6 9 26 19
45 22 42 56 179 56 224 0 22 -5 33 -15 33 -18 0 -21 -10 -30 -82 -6 -42 -5
-56 4 -51 12 8 5 -20 -11 -40 -4 -6 -5 -20 -1 -29 4 -12 3 -16 -4 -12 -11 7
-33 -63 -33 -105 0 -13 -4 -28 -9 -33 -4 -6 -20 -50 -35 -100 -15 -49 -29 -96
-31 -102 -9 -29 -25 -9 -44 55 -11 37 -38 141 -61 230 -48 194 -60 225 -79
213 -17 -11 15 -141 89 -370 27 -85 50 -164 50 -177 0 -37 -36 -172 -76 -284
-39 -109 -43 -145 -33 -292 4 -63 -3 -90 -18 -74 -16 16 -15 222 2 354 23 178
17 416 -16 592 -26 138 -72 242 -99 225 -24 -15 -33 -83 -26 -206 7 -142 23
-241 62 -379 24 -85 27 -113 28 -267 0 -95 -2 -169 -5 -165 -19 21 -89 301
-120 477 -20 111 -23 163 -23 360 1 243 6 275 78 533 14 48 14 56 0 77 -17 26
-53 39 -59 22 -2 -7 -16 -84 -30 -171 -42 -255 -50 -495 -24 -694 10 -83 11
-97 4 -90 -11 10 -44 200 -55 318 -18 179 -8 357 36 631 8 46 -12 62 -27 22
-64 -169 -78 -668 -23 -884 8 -31 14 -61 14 -65 0 -19 -28 46 -52 121 -46 142
-53 191 -52 370 1 192 20 340 59 454 30 90 31 101 5 94 -14 -4 -22 2 -30 21
-10 29 -18 33 -25 14z m556 -1538 c10 -6 28 -29 40 -51 24 -47 59 -179 59
-221 l0 -30 -25 30 c-56 66 -135 64 -195 -5 l-32 -36 7 44 c20 126 49 204 93
252 29 31 27 30 53 17z"/>
<path d="M6676 7904 c-4 -60 -14 -171 -23 -247 -12 -102 -13 -141 -4 -148 6
-5 9 -6 6 -2 -3 3 2 14 10 23 15 17 37 125 51 255 l6 60 28 -80 c15 -44 33
-100 40 -123 11 -41 12 -43 29 -28 10 9 21 13 24 9 12 -12 4 55 -27 227 -23
125 -36 166 -47 149 -7 -11 -9 -11 -9 -1 0 10 -4 10 -16 -2 -20 -21 -41 -20
-52 1 -7 12 -12 -16 -16 -93z"/>
<path d="M5616 7162 c-13 -21 4 -132 28 -185 14 -32 35 -88 46 -125 11 -37 31
-105 46 -152 141 -449 168 -575 243 -1125 30 -218 44 -286 87 -411 67 -201
132 -316 230 -410 65 -63 155 -124 182 -124 31 0 153 87 200 144 78 93 92 113
137 204 74 152 142 398 164 602 6 58 19 150 28 204 13 76 14 101 5 104 -7 2
-12 13 -12 25 0 18 2 19 10 7 8 -12 10 -10 10 11 0 14 5 30 10 35 6 6 15 44
19 85 12 100 68 310 174 649 25 80 49 156 52 170 9 31 52 135 72 173 12 22 12
34 2 65 -6 20 -14 44 -17 52 -2 8 -13 -23 -23 -69 -10 -46 -22 -88 -27 -95 -5
-6 -22 -51 -37 -101 -15 -49 -49 -155 -76 -235 -26 -80 -66 -210 -88 -289 -56
-196 -81 -336 -136 -746 -31 -229 -37 -261 -67 -370 -34 -122 -76 -234 -116
-310 -45 -83 -59 -91 -106 -54 -24 19 -76 106 -76 127 0 5 -8 27 -17 48 -20
47 -17 38 -48 154 -13 52 -25 103 -25 113 0 26 -20 21 -20 -5 -1 -45 -31 -165
-67 -268 -29 -80 -48 -114 -78 -147 -49 -51 -74 -49 -110 6 -57 87 -161 413
-189 591 -8 52 -20 147 -26 210 -6 63 -15 140 -20 170 -42 248 -55 313 -89
440 -47 175 -75 264 -136 435 -35 96 -114 376 -115 403 0 6 -19 1 -24 -6z"/>
<path d="M8221 7060 c0 -13 14 -82 36 -167 3 -13 9 -20 14 -17 5 3 9 -2 9 -11
0 -9 -4 -13 -10 -10 -13 8 -13 -47 0 -100 11 -48 14 -322 4 -349 -6 -15 -4
-18 9 -13 11 4 14 2 11 -8 -3 -8 -11 -13 -17 -12 -12 2 -49 -132 -42 -153 5
-13 7 -13 16 0 9 13 10 13 6 0 -2 -8 -12 -14 -21 -14 -9 1 -16 -3 -16 -10 -1
-22 -50 -48 -78 -41 -15 3 -35 7 -44 8 -11 1 -20 13 -24 32 -3 16 -10 35 -15
41 -4 5 -13 44 -19 85 -6 40 -15 94 -21 119 -5 25 -12 72 -15 105 -3 32 -9 66
-13 75 -5 8 -11 33 -15 55 -11 64 -67 226 -80 230 -6 2 -23 6 -38 9 -20 5 -25
11 -21 25 3 13 -2 23 -17 31 -30 16 -37 5 -21 -33 95 -238 143 -472 156 -771
5 -99 15 -146 15 -68 0 48 15 64 23 24 10 -50 77 -109 77 -67 0 8 -7 15 -15
15 -17 0 -19 9 -6 29 7 11 15 10 45 -4 41 -20 47 -28 13 -20 -21 6 -22 4 -19
-35 5 -54 56 -114 83 -99 10 5 30 7 44 3 21 -5 25 -3 25 16 0 13 9 37 19 54
18 28 57 184 66 261 2 17 8 69 14 117 14 107 13 259 -1 356 -10 70 -22 90 -31
55 -4 -16 -5 -16 -6 -1 0 9 4 20 9 23 16 10 12 54 -15 139 -30 97 -41 117 -54
97 -7 -11 -9 -11 -14 0 -4 11 -6 11 -6 -1z"/>
<path d="M6050 6604 c0 -3 22 -72 49 -153 105 -310 161 -561 196 -885 22 -201
7 -496 -26 -496 -18 0 -98 245 -158 480 -21 85 -27 98 -29 70 -2 -19 3 -66 11
-105 8 -38 22 -109 31 -156 30 -160 97 -332 135 -344 31 -9 60 12 66 48 37
223 21 516 -51 907 -32 174 -94 362 -198 603 -15 33 -26 47 -26 31z"/>
<path d="M6877 6553 c-105 -236 -205 -580 -194 -664 3 -22 2 -37 -2 -34 -8 4
-30 -101 -37 -175 -2 -19 -8 -64 -13 -100 -5 -36 -9 -162 -8 -280 2 -180 5
-220 19 -246 15 -27 36 -44 54 -44 2 0 15 17 28 38 32 47 78 180 106 302 12
52 28 118 35 145 19 71 28 155 16 155 -12 0 -19 -22 -46 -150 -33 -155 -72
-285 -113 -372 -33 -72 -36 -76 -47 -55 -21 40 -26 276 -11 487 12 172 14 185
30 270 8 41 12 78 10 82 -2 3 0 9 5 13 6 3 13 27 16 53 12 86 80 322 147 510
44 123 46 157 5 65z"/>
<path d="M5025 4439 c-203 -26 -511 -154 -821 -340 -382 -231 -703 -542 -823
-799 -161 -346 29 -629 494 -736 120 -28 392 -26 540 4 229 46 405 106 630
217 124 61 294 161 315 185 19 21 93 72 88 60 -82 -202 -101 -261 -106 -321
-5 -76 7 -102 66 -142 65 -45 97 -44 187 4 92 48 229 138 330 216 l70 54 5
-63 c8 -98 49 -157 138 -202 63 -32 112 -33 194 -4 109 37 284 140 272 160 -3
4 -8 7 -12 5 -121 -66 -272 -117 -362 -123 -64 -5 -80 -2 -107 15 -77 49 -82
183 -12 340 84 191 360 493 534 586 78 41 125 31 125 -28 0 -63 -61 -137 -192
-236 -26 -19 -46 -37 -43 -39 7 -7 99 31 150 63 69 44 153 137 161 181 14 77
-47 144 -133 144 -174 0 -483 -276 -622 -556 -27 -55 -54 -116 -61 -137 -13
-42 -63 -86 -219 -190 -236 -159 -411 -203 -411 -103 0 26 76 209 128 306 16
30 57 109 92 175 124 235 126 241 84 274 -18 14 -32 18 -47 12 -23 -8 -30 -21
-110 -188 -43 -89 -56 -107 -110 -150 -34 -27 -82 -63 -107 -79 -25 -16 -51
-34 -58 -41 -35 -33 -391 -197 -527 -242 -428 -142 -850 -159 -1084 -43 -153
76 -230 181 -239 324 -6 93 9 158 59 265 137 297 489 632 936 892 175 101 401
191 565 225 138 29 284 17 349 -27 49 -33 56 -50 33 -79 -140 -180 -185 -247
-252 -378 -61 -117 -84 -187 -80 -237 3 -37 4 -38 43 -41 34 -2 51 4 100 37
137 93 280 266 316 383 25 78 27 233 5 275 -13 26 -13 33 -1 49 31 41 4 62
-30 24 -16 -17 -20 -18 -34 -6 -65 57 -223 78 -406 55z m396 -231 c37 -135
-71 -361 -238 -496 -47 -38 -93 -55 -93 -34 0 10 36 118 49 147 54 121 98 207
136 267 51 78 115 158 127 158 4 0 12 -19 19 -42z"/>
<path d="M5779 3714 c-38 -20 -107 -98 -115 -130 -6 -21 -2 -31 16 -46 32 -26
63 -22 112 15 81 62 110 131 66 161 -27 19 -44 19 -79 0z"/>
<path d="M9345 3711 c-17 -10 -50 -40 -73 -67 -34 -37 -42 -54 -40 -78 2 -25
9 -32 36 -40 40 -11 70 3 125 59 36 37 57 72 57 95 0 15 -42 50 -59 50 -9 0
-30 -8 -46 -19z"/>
<path d="M7246 3606 c-87 -45 -163 -103 -257 -198 -69 -69 -161 -183 -198
-248 -85 -147 -121 -248 -128 -357 -5 -78 -4 -85 22 -125 34 -53 68 -82 124
-108 73 -33 140 -24 271 38 78 37 180 104 180 119 0 18 -2 17 -67 -18 -91 -50
-219 -90 -303 -95 -64 -5 -80 -2 -108 16 -178 112 34 545 418 853 139 112 230
129 230 45 0 -61 -45 -119 -170 -218 -77 -61 -79 -63 -50 -55 139 39 300 181
300 265 0 34 -29 79 -63 100 -51 32 -121 27 -201 -14z"/>
<path d="M9170 3354 c-16 -37 -30 -68 -30 -70 0 -2 -28 -61 -63 -131 -79 -159
-139 -308 -161 -395 -20 -81 -11 -130 31 -170 30 -29 91 -58 121 -58 21 0 98
39 201 101 59 37 66 38 102 29 40 -11 44 -19 39 -80 -8 -98 -227 -321 -450
-457 -113 -69 -238 -95 -300 -63 -118 60 -138 190 -64 428 65 213 262 586 399
757 68 85 66 111 -8 103 -49 -6 -123 -47 -247 -138 -76 -55 -296 -236 -360
-296 -97 -90 -91 -87 -108 -70 -14 14 -11 24 31 109 52 106 139 241 216 336
28 35 50 66 47 68 -11 12 -59 -14 -94 -51 -115 -123 -426 -615 -420 -666 3
-22 7 -25 38 -22 59 5 112 38 162 99 58 72 240 257 339 344 175 155 253 197
278 151 11 -22 13 -18 -94 -184 -96 -149 -239 -428 -284 -558 -29 -82 -34
-111 -38 -215 -4 -111 -3 -123 19 -164 13 -25 40 -59 61 -75 37 -29 44 -31
125 -31 223 1 484 162 676 420 61 81 83 122 101 185 17 63 9 109 -20 116 -21
5 -12 14 73 79 115 86 145 117 140 141 -3 16 -9 13 -43 -17 -92 -82 -296 -216
-414 -271 -73 -35 -162 -48 -186 -28 -26 21 -17 81 23 166 21 43 44 95 52 114
8 19 63 126 122 236 104 194 119 234 102 278 -4 11 -19 16 -45 16 -38 0 -39
-1 -69 -66z"/>
<path d="M7784 3378 c-41 -26 -61 -32 -124 -35 -41 -2 -81 -6 -87 -8 -24 -8
-13 -43 24 -72 l36 -30 -44 -59 c-24 -32 -47 -61 -50 -64 -17 -14 -158 -232
-180 -280 -54 -116 -60 -135 -65 -194 -5 -66 -4 -70 40 -104 36 -28 75 -28
156 -1 169 55 361 188 550 378 124 126 190 244 190 341 0 27 5 52 10 55 6 4
35 9 65 12 30 3 55 9 55 13 0 15 -48 20 -198 20 -150 0 -153 0 -209 30 -71 38
-107 38 -169 -2z m324 -108 c39 -24 41 -46 11 -127 -39 -105 -134 -226 -280
-356 -151 -135 -257 -203 -367 -233 -71 -20 -109 -13 -114 19 -11 62 140 352
249 478 187 218 217 237 378 238 73 1 96 -3 123 -19z"/>
<path d="M6534 2322 c-19 -29 -10 -41 14 -19 10 9 33 20 50 23 41 8 48 -8 29
-67 -8 -24 -25 -77 -38 -118 -16 -49 -30 -76 -41 -79 -37 -9 -16 -22 37 -22
30 0 55 5 55 10 0 6 -7 10 -15 10 -22 0 -18 32 23 155 34 102 39 110 62 109
47 -3 50 -4 50 -19 0 -23 16 -18 28 10 7 14 12 27 12 28 0 1 -56 2 -125 2
-121 0 -127 -1 -141 -23z"/>
<path d="M7245 2330 c-61 -31 -98 -91 -103 -165 -4 -56 -2 -63 26 -93 25 -27
37 -32 76 -32 98 0 165 66 173 174 6 75 -5 102 -52 122 -46 19 -73 18 -120 -6z
m121 -21 c38 -42 9 -174 -50 -229 -35 -31 -101 -34 -122 -5 -20 27 -17 112 5
160 38 84 124 122 167 74z"/>
<path d="M7905 2338 c-55 -33 -61 -93 -14 -140 47 -48 61 -73 54 -101 -14 -56
-107 -58 -121 -2 -9 34 -24 32 -24 -5 0 -56 94 -71 149 -24 48 40 43 83 -14
142 -51 51 -60 93 -25 112 34 18 74 9 78 -17 2 -13 7 -23 12 -23 12 0 21 43
11 53 -15 15 -85 18 -106 5z"/>
<path d="M3980 2331 c0 -5 5 -11 11 -13 18 -6 -62 -250 -83 -256 -10 -2 -18
-8 -18 -13 0 -5 45 -9 100 -9 95 0 100 1 116 25 22 33 12 43 -15 16 -16 -16
-34 -21 -72 -21 l-52 0 7 39 c12 76 22 91 61 91 28 0 37 -5 44 -22 7 -19 10
-16 24 25 9 26 11 47 6 47 -5 0 -12 -7 -15 -15 -4 -10 -20 -15 -46 -15 -37 0
-40 2 -34 23 4 12 9 34 12 49 9 38 22 46 72 40 33 -3 42 -8 42 -23 0 -39 29
-7 30 34 0 4 -43 7 -95 7 -52 0 -95 -4 -95 -9z"/>
<path d="M4573 2325 c10 -9 19 -59 27 -150 7 -74 16 -135 19 -135 4 0 44 57
91 126 46 69 97 137 113 150 l29 24 -49 0 c-37 -1 -44 -3 -31 -11 16 -9 10
-21 -53 -115 -39 -58 -72 -104 -74 -102 -2 1 -8 48 -14 103 -11 91 -10 101 6
112 14 11 10 13 -31 13 -41 0 -46 -2 -33 -15z"/>
<path d="M5249 2326 c18 -21 -55 -257 -81 -264 -47 -12 -8 -22 85 -22 102 0
104 0 116 26 15 35 8 41 -18 15 -16 -16 -34 -21 -71 -21 -57 0 -59 4 -36 80
12 42 16 45 50 48 30 3 38 -1 45 -20 10 -24 9 -25 30 40 10 31 -1 47 -13 17
-3 -10 -19 -15 -47 -15 -32 0 -40 3 -36 14 3 8 9 30 12 50 9 46 21 54 72 48
31 -3 43 -9 48 -25 6 -22 6 -22 15 -2 19 43 14 45 -86 45 -83 0 -95 -2 -85
-14z"/>
<path d="M5861 2328 c14 -10 15 -17 4 -57 -39 -139 -62 -196 -83 -206 -12 -5
-22 -13 -22 -17 0 -12 88 -10 95 2 3 6 -1 10 -9 10 -9 0 -16 6 -16 13 0 15 58
209 65 215 7 7 5 11 60 -125 27 -68 51 -123 55 -123 3 0 25 60 48 134 31 95
49 139 65 150 21 14 20 15 -28 15 -37 0 -46 -2 -34 -9 14 -8 15 -17 8 -47 -18
-75 -46 -154 -55 -154 -8 1 -24 36 -85 189 -7 17 -16 22 -46 21 -31 0 -35 -2
-22 -11z"/>
</g>
</svg>
